<?xml version="1.0" encoding="utf-8"?>
<!-- Generator: Adobe Illustrator 19.0.0, SVG Export Plug-In . SVG Version: 6.00 Build 0)  -->
<svg version="1.1" id="Layer_1" xmlns="http://www.w3.org/2000/svg" xmlns:xlink="http://www.w3.org/1999/xlink" x="0px" y="0px"
	 viewBox="0 0 24 24" style="enable-background:new 0 0 24 24;" xml:space="preserve">
<style type="text/css">
	.st0{fill:#10B9FF;}
</style>
<path class="st0" d="M18.3,7.6l1,0.9l1.1-1.2l-2.8-2.5L16.5,6l1,0.9l-0.6,0.7c-1.5-1.1-3.3-1.8-5.3-1.8S7.7,6.5,6.2,7.7L5.5,6.8
	l1-0.9L5.4,4.7L2.6,7.3l1.1,1.2l1-0.9l0.7,0.8C3.9,10,3,12.1,3,14.4c0,4.8,3.9,8.7,8.7,8.7s8.7-3.9,8.7-8.7c0-2.4-1-4.6-2.5-6.1
	L18.3,7.6z M14.4,18.2l-3.5-3.5v-4.2h1.3v3.6l3.1,3.1L14.4,18.2z"/>
<g>
	<path class="st0" d="M13.7,5h-3.3c-0.2,0-0.3-0.1-0.4-0.3c-0.1-0.2,0-0.4,0.1-0.5l2.1-2.5H10V0.8h3.3c0.2,0,0.3,0.1,0.4,0.3
		c0.1,0.2,0,0.4-0.1,0.5l-2.1,2.5h2.3V5z"/>
</g>
</svg>
